<svg width="128" height="128" viewBox="0 0 128 128" fill="none" xmlns="http://www.w3.org/2000/svg">
  <circle cx="64" cy="64" r="60" fill="#7057FF"/>
  <path fill-rule="evenodd" clip-rule="evenodd" d="M64 28C44.12 28 28 44.12 28 64C28 80.08 38.32 93.76 52.64 98.32C54.44 98.64 55.12 97.48 55.12 96.48C55.12 95.6 55.08 92.88 55.08 89.96C46 91.6 43.8 87.48 43.2 85.32C42.84 84.2 41.08 81.08 39.6 80.2C38.4 79.52 36.6 77.88 39.52 77.84C42.24 77.8 44.16 80.44 44.72 81.6C48.32 87.92 54.28 86.2 55.24 85.2C55.6 82.96 56.52 81.16 57.52 80.24C50.08 79.32 42.32 76.52 42.32 64.4C42.32 60.56 43.72 57.4 44.8 54.92C44.6 53.96 43.36 50.64 45 46.12C45 46.12 48.4 45.12 55.12 49.72C58.28 48.88 61.64 48.48 65 48.48C68.36 48.48 71.72 48.88 74.88 49.72C81.6 45.08 85 46.12 85 46.12C86.64 50.64 85.4 53.96 85.2 54.92C86.28 57.4 87.68 60.52 87.68 64.4C87.68 76.56 79.88 79.32 72.44 80.24C73.72 81.36 74.84 83.52 74.84 86.88C74.84 91.6 74.8 95.4 74.8 96.48C74.8 97.48 75.48 98.68 77.28 98.32C91.68 93.76 100 79.96 100 64C100 44.12 83.88 28 64 28Z" fill="white"/>
</svg>
