<?xml version="1.0" encoding="UTF-8"?>
<svg id="Layer_2" data-name="Layer 2" xmlns="http://www.w3.org/2000/svg" viewBox="0 0 213.1 91.45">
  <defs>
    <style>
      .cls-1 {
        fill: #d8d8d8;
      }

      .cls-2 {
        fill: #fff;
      }

      .cls-3 {
        fill: #afafaf;
      }
    </style>
  </defs>
  <g id="Layer_1-2" data-name="Layer 1">
    <g id="Layer_2-2" data-name="Layer 2">
      <g id="uuid-9d54f1b1-547b-4982-9f02-e18220bcf6c5" data-name="Layer 1-2">
        <path class="cls-2" d="M87.9,74.89h12.9v3.8h-19.6l13.2-23.1h-11v-3.8h17.7l-13.2,23.1Z"/>
        <path class="cls-2" d="M109.6,51.79v26.9h-4.1v-26.9h4.1Z"/>
        <path class="cls-2" d="M120.1,51.79v23.1h7.9v3.8h-11.9v-26.9h4Z"/>
        <path class="cls-2" d="M135.9,51.79v23.1h7.9v3.8h-11.9v-26.9h4Z"/>
        <path class="cls-2" d="M151.7,51.79v26.9h-4v-26.9h4Z"/>
        <path class="cls-2" d="M185.5,79.19h-5.1l-2.1-2.2c-2.22,1.49-4.83,2.25-7.5,2.2-3.5,0-6.88-1.28-9.5-3.6-2.94-2.56-4.59-6.3-4.5-10.2-.12-3.86,1.45-7.59,4.3-10.2,5.23-5.06,13.47-5.23,18.9-.4,5.81,4.85,6.58,13.49,1.73,19.3-.2.24-.41.48-.63.7l4.4,4.4ZM174.3,68.09l3.9,3.8c1.74-1.74,2.69-4.13,2.6-6.6.09-2.73-.96-5.38-2.9-7.3-3.93-3.89-10.27-3.89-14.2,0-1.89,1.99-2.9,4.66-2.8,7.4-.09,2.67.97,5.25,2.9,7.1,1.83,1.84,4.31,2.88,6.9,2.9,1.64.02,3.27-.4,4.7-1.2l-6.3-6.1h5.2Z"/>
        <path class="cls-2" d="M205.8,72.19h-11.5l-3,6.5h-4.4l13.3-28.6,12.9,28.6h-4.5l-2.8-6.5ZM204.1,68.29l-3.9-9.1-4.2,9.1h8.1Z"/>
        <path class="cls-2" d="M92.3,22.69c1.12,1.1,1.7,2.63,1.6,4.2.12,1.53-.51,3.02-1.7,4-1.1.9-2.7,1.3-5,1.3h-2.7v4.5h-2.6v-15.3h5.3c2.3,0,4,.4,5.1,1.3ZM90.4,29.09c.55-.68.83-1.53.8-2.4.13-.89-.26-1.78-1-2.3-.95-.51-2.02-.75-3.1-.7h-2.6v6.2h3c1.03.1,2.07-.18,2.9-.8Z"/>
        <path class="cls-2" d="M106.2,35.19c-1.19,1.12-2.77,1.74-4.4,1.7-1.63.01-3.2-.59-4.4-1.7-1.15-1.13-1.77-2.69-1.7-4.3-.07-1.61.55-3.17,1.7-4.3,1.2-1.11,2.77-1.71,4.4-1.7,1.63-.04,3.21.58,4.4,1.7,2.37,2.31,2.43,6.11.12,8.48-.04.04-.08.08-.12.12ZM99.2,33.69c.68.69,1.63,1.05,2.6,1,1,.06,1.98-.31,2.7-1,1.34-1.63,1.34-3.97,0-5.6-.72-.69-1.7-1.06-2.7-1-.97-.05-1.92.31-2.6,1-1.47,1.58-1.47,4.02,0,5.6Z"/>
        <path class="cls-2" d="M116.1,36.69h-2.8l-4.1-11.6h2.6l2.9,8.8,2.9-8.8h2.5l2.9,8.8,2.9-8.8h2.5l-4,11.6h-2.8l-2.8-7.9-2.7,7.9Z"/>
        <path class="cls-2" d="M141.5,31.99h-9.2c.09.81.53,1.54,1.2,2,.7.57,1.6.86,2.5.8,1.26.1,2.49-.43,3.3-1.4l1.4,1.6c-1.3,1.28-3.07,1.97-4.9,1.9-3.15.11-5.79-2.34-5.9-5.49,0-.17,0-.34,0-.51-.02-3.31,2.65-6.02,5.96-6.04,1.44,0,2.84.5,3.94,1.44,1.13,1.01,1.76,2.48,1.7,4v1.7ZM132.3,29.99h6.7c.04-.83-.29-1.64-.9-2.2-.65-.53-1.46-.81-2.3-.8-.86,0-1.7.29-2.4.8-.69.52-1.09,1.34-1.1,2.2Z"/>
        <path class="cls-2" d="M150.3,27.39c-1.04-.06-2.05.38-2.7,1.2-.65.9-.97,1.99-.9,3.1v5h-2.5v-11.6h2.5v2.3c.36-.73.92-1.35,1.6-1.8.6-.47,1.34-.72,2.1-.7v2.5h-.1Z"/>
        <path class="cls-2" d="M163.8,31.99h-9.2c.09.81.53,1.54,1.2,2,.67.56,1.53.84,2.4.8,1.29.11,2.56-.41,3.4-1.4l1.4,1.6c-1.3,1.28-3.07,1.97-4.9,1.9-3.15.11-5.79-2.34-5.9-5.49,0-.17,0-.34,0-.51-.1-1.64.52-3.25,1.7-4.4,1.14-1.06,2.65-1.63,4.2-1.6,1.46,0,2.87.49,4,1.4,1.13,1.01,1.76,2.48,1.7,4v1.7ZM154.6,29.99h6.7c.04-.83-.29-1.64-.9-2.2-.65-.53-1.46-.81-2.3-.8-.86,0-1.7.29-2.4.8-.69.52-1.09,1.34-1.1,2.2Z"/>
        <path class="cls-2" d="M167.4,35.29c-1.12-1.19-1.74-2.77-1.7-4.4-.07-1.64.55-3.23,1.7-4.4,1.1-1.06,2.57-1.64,4.1-1.6,1.5-.04,2.91.72,3.7,2v-6.4h2.5v16.2h-2.5v-1.7c-.91,1.29-2.43,2.01-4,1.9-1.43.01-2.81-.57-3.8-1.6ZM168.2,30.99c-.02,1.01.38,1.99,1.1,2.7,1.39,1.35,3.61,1.35,5,0,.67-.78,1.03-1.77,1-2.8,0-.99-.35-1.95-1-2.7-.61-.76-1.53-1.2-2.5-1.2-1,.01-1.94.45-2.6,1.2-.71.75-1.07,1.77-1,2.8Z"/>
        <path class="cls-2" d="M193.5,24.89c1.5-.04,2.95.53,4,1.6,1.14,1.14,1.75,2.69,1.7,4.3.06,1.64-.56,3.23-1.7,4.4-.96,1.09-2.35,1.71-3.8,1.7-1.55-.02-3.01-.71-4-1.9v1.7h-2.4v-16.2h2.4v6.6c.77-1.37,2.23-2.22,3.8-2.2ZM189.7,30.89c-.04,1.03.32,2.03,1,2.8.63.65,1.5,1.01,2.4,1,1.93.06,3.55-1.45,3.61-3.39,0-.14,0-.28-.01-.41.04-1.03-.32-2.03-1-2.8-.66-.68-1.55-1.08-2.5-1.1-.95,0-1.86.4-2.5,1.1-.68.77-1.04,1.77-1,2.8Z"/>
        <path class="cls-2" d="M203.5,41.39c-1.09.01-2.14-.42-2.9-1.2l1.1-2c.4.47.98.76,1.6.8.5.02.99-.21,1.3-.6.36-.34.58-.81.6-1.3,0-.2-1.6-4.2-4.8-12h2.7l3.5,8.6,3.4-8.6h2.7l-5.7,13.8c-.27.73-.76,1.36-1.4,1.8-.61.45-1.34.7-2.1.7Z"/>
      </g>
    </g>
    <g>
      <polygon class="cls-2" points="51.55 43.71 16.17 61.15 51.55 77.89 51.55 91.45 0 67.02 0 53.67 35.87 36.01 0 19.07 0 5.51 51.55 29.94 51.55 43.71"/>
      <polygon class="cls-1" points="0 5.51 13.63 0 65.18 24.43 51.55 29.94 0 5.51"/>
      <polygon class="cls-3" points="51.55 43.71 65.18 38.2 65.18 24.43 51.55 29.94 51.55 43.71"/>
      <polygon class="cls-3" points="51.55 77.89 51.55 50.84 65.18 44.56 65.18 85.94 51.55 91.45 51.55 77.89"/>
    </g>
  </g>
</svg>