<?xml version="1.0" encoding="UTF-8"?>
<svg xmlns="http://www.w3.org/2000/svg" xmlns:xlink="http://www.w3.org/1999/xlink" version="1.1" viewBox="0 0 120 120">
  <!-- Generator: Adobe Illustrator 29.7.1, SVG Export Plug-In . SVG Version: 2.1.1 Build 8)  -->
  <defs>
    <style>
      .st0 {
        fill: none;
      }

      .st1 {
        mask: url(#mask);
      }

      .st2, .st3 {
        fill-rule: evenodd;
      }

      .st2, .st4 {
        fill: #fff;
      }

      .st5 {
        fill: #e6e6e6;
      }

      .st3 {
        fill: url(#linear-gradient);
      }

      .st3, .st6 {
        isolation: isolate;
      }

      .st3, .st7 {
        mix-blend-mode: overlay;
        opacity: .2;
      }

      .st8 {
        fill: #d9d9d9;
      }

      .st9 {
        clip-path: url(#clippath);
      }
    </style>
    <clipPath id="clippath">
      <rect class="st0" x="7.2" y="7.4" width="106.2" height="106.2"/>
    </clipPath>
    <mask id="mask" x="7.1" y="7.4" width="106.3" height="106.2" maskUnits="userSpaceOnUse">
      <g id="mask0">
        <path class="st2" d="M82.5,113.1c1.7.7,3.6.6,5.3-.2l21.9-10.6c2.3-1.1,3.8-3.4,3.8-6V24.6c0-2.6-1.5-4.9-3.8-6l-21.9-10.6c-2.2-1.1-4.8-.8-6.8.6-.3.2-.5.4-.8.7l-41.9,38.4-18.2-13.9c-1.7-1.3-4.1-1.2-5.6.3l-5.8,5.3c-1.9,1.8-1.9,4.8,0,6.6l15.8,14.5-15.8,14.5c-1.9,1.8-1.9,4.8,0,6.6l5.8,5.3c1.6,1.4,4,1.5,5.6.3l18.2-13.9,41.9,38.4c.7.7,1.4,1.2,2.3,1.5ZM86.9,36.2l-31.8,24.2,31.8,24.2v-48.5Z"/>
      </g>
    </mask>
    <linearGradient id="linear-gradient" x1="60.2" y1="114.6" x2="60.2" y2="8.4" gradientTransform="translate(0 122) scale(1 -1)" gradientUnits="userSpaceOnUse">
      <stop offset="0" stop-color="#fff"/>
      <stop offset="1" stop-color="#fff" stop-opacity="0"/>
    </linearGradient>
  </defs>
  <g class="st6">
    <g id="Layer_1">
      <g class="st9">
        <g class="st1">
          <g>
            <path class="st8" d="M109.6,18.6l-21.9-10.6c-2.5-1.2-5.6-.7-7.5,1.3L8.6,75c-1.9,1.8-1.9,4.8,0,6.6l5.9,5.3c1.6,1.4,4,1.5,5.7.3L106.4,21.4c2.9-2.2,7.1-.1,7.1,3.5v-.3c0-2.6-1.5-4.9-3.8-6Z"/>
            <path class="st5" d="M109.6,102.3l-21.9,10.6c-2.5,1.2-5.6.7-7.5-1.3L8.6,46c-1.9-1.8-1.9-4.8,0-6.6l5.9-5.3c1.6-1.4,4-1.5,5.7-.3l86.3,65.8c2.9,2.2,7.1.1,7.1-3.5v.3c0,2.6-1.5,4.9-3.8,6Z"/>
            <path class="st4" d="M87.8,112.9c-2.5,1.2-5.6.7-7.5-1.3,2.4,2.5,6.6.7,6.6-2.8V12.1c0-3.5-4.2-5.2-6.6-2.8,2-2,5-2.5,7.5-1.3l21.9,10.6c2.3,1.1,3.8,3.4,3.8,6v71.7c0,2.6-1.5,4.9-3.8,6l-21.9,10.6Z"/>
            <g class="st7">
              <path class="st3" d="M82.4,113.1c1.7.7,3.6.6,5.3-.2l21.9-10.6c2.3-1.1,3.8-3.4,3.8-6V24.6c0-2.6-1.5-4.9-3.8-6l-21.9-10.6c-2.2-1.1-4.8-.8-6.8.6-.3.2-.5.4-.8.7l-41.9,38.4-18.2-13.9c-1.7-1.3-4.1-1.2-5.6.3l-5.8,5.3c-1.9,1.8-1.9,4.8,0,6.6l15.8,14.5-15.8,14.5c-1.9,1.8-1.9,4.8,0,6.6l5.8,5.3c1.6,1.4,4,1.5,5.6.3l18.2-13.9,41.9,38.4c.7.7,1.4,1.2,2.3,1.5ZM86.8,36.2l-31.8,24.2,31.8,24.2v-48.5Z"/>
            </g>
          </g>
        </g>
      </g>
    </g>
  </g>
</svg>